<?xml version="1.0" encoding="UTF-8"?>
<svg id="_图层_1" data-name="图层_1" xmlns="http://www.w3.org/2000/svg" version="1.1" viewBox="0 0 1920 1080">
  <!-- Generator: Adobe Illustrator 29.8.1, SVG Export Plug-In . SVG Version: 2.1.1 Build 2)  -->
  <defs>
    <style>
      .st0 {
        fill: #fff;
      }
    </style>
  </defs>
  <path class="st0" d="M953.37,568.18c7.69,3.15,13.02,7,16.22,9.66,15.76,13.06,25.12,34.35,21.82,50.79-.62,3.06-2.16,8.4-2.7,8.3-.5-.09.37-4.5,0-9.66-.69-9.76-5.52-18.24-7.01-17.86-1.38.35,1.53,7.94-1.03,17.77-.63,2.42-3.08,10.68-10.01,16.8-11.9,10.52-30.08,8.6-41.41,3.59-8.98-3.98-14.2-10.19-16.03-12.55-6.5-8.41-7.85-16.97-8.5-21.44-1.83-12.62,1.5-23.25,2.1-23.19.52.05-1.58,8.02.97,18.76.83,3.49,3.12,12.61,11.01,20.63,1.46,1.49,4.72,4.75,9.85,7.34,2.12,1.07,15.32,7.72,28.19,2.12,14.57-6.33,19.95-24.52,17.96-36.89-1.29-8.03-5.97-15.31-6.57-16.22-3.15-4.81-8.72-11.16-10.14-12.7-.13-.14-.93-.98-1.98-2.17-.92-1.03-1.83-2.06-2.75-3.09Z"/>
  <path class="st0" d="M995.25,608.61c1.01,2.39,2.25,6.07,2.61,10.72.09,1.2.2,3.42-.1,6.18-.23,2.18-1.07,8.07-4.06,13.04-5.03,8.37-13.54,9.77-13,11.52.53,1.74,9.3,1.37,17.57-1.26,3.46-1.1,12.12-3.96,19.67-11.62,14.55-14.76,14.88-37.12,15.06-37.08.07.02-.52,4.05-2.61,9.32-.71,1.8-2.07,5.17-4.59,8.93-5.77,8.61-13.16,12.59-17.62,14.92-1.49.78-7.05,3.68-8.21,2.3-.56-.67.27-1.89.9-4.76.66-3,.55-5.41.51-6.57-.13-3.88-1.05-6.68-1.3-7.41-.56-1.63-1.2-2.92-1.7-3.83-.33-.55-.7-1.12-1.1-1.7-.68-1-1.38-1.9-2.05-2.7Z"/>
  <path class="st0" d="M940.34,557.8c3.75-.35,9.77-.86,17.22.97,2.07.51,3.76,1.07,4.96,1.51,1.63.65,2.9,1.25,3.66,1.62,11.09,5.41,18.32,13.57,23.65,19.7.52.6.93,1.08,1.15,1.34,0,0,0,0,0,0,1.97,2.4,6.69,2.61,6.69,2.61,7.61,0,13.51-2.29,13.51-2.29,5.7-2.74,9.43-7.08,9.14-7.47-.21-.28-2.32,1.68-6.44,2.83-3.07.86-5.63.81-7.98.77-3.98-.07-7.03-.76-8.15-1.03-6.3-1.55-10.53-4.43-17.63-9.75-3.81-2.86-6.13-4.83-7.64-6.21-1.07-.97-.98-.94-1.53-1.42-8.37-7.38-17.44-7.34-17.44-7.34-.64,0-2.57.05-4.83-.77-1.21-.44-2.93-1.06-3.03-2.06-.14-1.47,3.34-3.06,5.66-3.73,2.39-.69,4.38-.69,4.93-.68.06,0,.1,0,.12,0,3.65.11,19.32-5.17,25.3-6.57,4.25-.99,7.29-.88,13.13-.68,7.01.25,15.66.56,23.58,5.66,3.67,2.37,5.77,4.86,6.07,4.57.44-.42-3.35-6.5-8.79-10.28-8.08-5.62-17.64-4.69-24.4-3.93-12.42,1.39-21.45,6.33-34.5,6.88-2.3.1-6.41.13-6.95-1.45-.37-1.1,1.13-2.59,2.32-3.77,2.5-2.48,5.14-3.64,6.37-4.15,4.68-1.95,8.63-2.65,10.04-2.9,7.15-1.23,9.01-.91,14.96-1.74,7.75-1.08,11.68-1.53,14.69-3.51,6.38-4.18,9.77-11.76,10.88-14.24,1.82-4.06,2.57-7.57,2.57-7.57,0,0-.6,2.4-2.25,5.12,0,0-.46.77-1.08,1.61-7.8,10.53-28.12,14.2-28.12,14.2-7.83,1.41-35.53,6.41-53.74,22.36-12.28,10.75-19.63,25.94-19.05,26.39.2.15,1.4-1.28,3.86-3.41,4.38-3.79,8.52-5.58,11.72-6.95,7.64-3.29,14.14-3.95,17.38-4.25Z"/>
  <path class="st0" d="M909.93,557.39"/>
  <path class="st0" d="M891.9,489.89c-3.82,4.05-34.39,37.63-27.04,85.36,8.49,55.1,59.56,77.37,62.42,78.55-8.46-4.65-23.48-14.4-35.88-32.21-13.84-19.88-16.85-38.97-18.08-47.36-5.97-40.86,11.81-73.28,18.58-84.34Z"/>
  <path class="st0" d="M901.12,613.18c-.77.34-13.96-18.26-18.48-45.01-4.01-23.68.65-42.68,2.93-51.61,3.06-11.95,7.13-28.02,20.63-43.48,8.86-10.15,18.39-16.24,24.89-19.72-12.79,13.96-28.09,35.01-37.03,63.42-3.57,11.34-8.45,27.39-6.93,48.8,2.01,28.16,14.78,47.27,14,47.61Z"/>
  <path class="st0" d="M901.46,578.59c-2.59-12.37-6.89-41.26,5.16-74.41,14.79-40.66,44.7-61.66,54.81-68.13-19.51,20.21-31.76,39.64-39.26,53.58-6.77,12.59-14.33,26.91-18.46,47.55-3.39,16.94-3.13,31.44-2.26,41.42Z"/>
  <path class="st0" d="M912.83,556.21c.46-13.92,3.51-49.2,28.42-83.61,19.71-27.24,43.77-41.01,56.35-47.1-24.5,24.37-42.18,44.9-54,59.5-6.11,7.55-11.96,15.12-17.53,26.13-8.88,17.56-12.01,33.91-13.23,45.08Z"/>
  <path class="st0" d="M1007.05,654.4c34.68-19.25,55.44-55.52,53.08-92.91-2.74-43.38-35.36-68.45-40.36-72.16,4.49,4.54,35.67,37.15,31.33,86.61-4.22,48.09-38.73,74.53-44.06,78.47Z"/>
  <path class="st0" d="M877.38,609.72"/>
</svg>