<?xml version="1.0" encoding="UTF-8"?>
<svg id="_图层_1" data-name="图层_1" xmlns="http://www.w3.org/2000/svg" version="1.1" viewBox="0 0 1920 1080">
  <!-- Generator: Adobe Illustrator 29.8.1, SVG Export Plug-In . SVG Version: 2.1.1 Build 2)  -->
  <defs>
    <style>
      .st0 {
        fill: #fff;
      }
    </style>
  </defs>
  <path class="st0" d="M911.44,613.16h-62.26l9.72-4.33,29.27-101.39h122.35c8.65-1.04,15.13-7.99,15.2-15.93.08-8.5-7.2-15.89-16.55-16.32l-61.02.1,25.96,27.14h-59.88l-26.06-27.04-28.13-40.12h152.66c30.88,2.11,55.02,26.87,54.92,56.15-.1,29.51-24.79,54.25-55.95,55.86l-81.4.49-18.82,65.39Z"/>
  <path class="st0" d="M962.02,552.59l35.58,36.88h-49.02l116.87,55.27-39.72-41.01,45.09-.2-49.75-52.32c-1.33.38-2.83.73-4.48,1.02-1.87.32-3.6.48-5.14.56-16.48-.07-32.96-.13-49.44-.2Z"/>
</svg>