<?xml version="1.0" standalone="no"?><!DOCTYPE svg PUBLIC "-//W3C//DTD SVG 1.1//EN" "http://www.w3.org/Graphics/SVG/1.1/DTD/svg11.dtd"><svg t="1763878473950" class="icon" viewBox="0 0 1109 1024" version="1.1" xmlns="http://www.w3.org/2000/svg" p-id="6794" ne="0.26479249160734963" xmlns:xlink="http://www.w3.org/1999/xlink" width="216.6015625" height="200"><path d="M623.883651 171.92892l339.948926 340.039411L605.424886 870.466506l-50.399668 50.67112a60.262439 60.262439 0 1 0 85.597999 85.055095l39.993991-40.265444 411.250431-411.340915a60.352924 60.352924 0 0 0 0-85.326547L701.338077 78.911221 640.351765 17.74394a60.262439 60.262439 0 0 0-85.417031 85.055095l68.948917 69.129885z" fill="hsla(0,0%,54%,1)" p-id="6795"></path><path d="M86.498324 171.92892l340.03941 340.039411L67.949075 870.466506l-50.399668 50.67112a60.262439 60.262439 0 1 0 85.507516 85.055095l40.084475-40.265444 411.250431-411.340915a60.352924 60.352924 0 0 0 0-85.326547L164.043235 78.911221 103.056923 17.74394a60.262439 60.262439 0 0 0-85.417032 85.055095l68.858433 69.129885z" fill="hsla(0,0%,54%,1)" p-id="6796"></path></svg>